<?xml version="1.0" encoding="utf-8"?>
<!-- Generator: Adobe Illustrator 27.5.0, SVG Export Plug-In . SVG Version: 6.00 Build 0)  -->
<svg version="1.1" xmlns="http://www.w3.org/2000/svg" xmlns:xlink="http://www.w3.org/1999/xlink" x="0px" y="0px"
	 viewBox="0 0 750 500" style="enable-background:new 0 0 750 500;" xml:space="preserve">
<g id="BACKGROUND">
	<g>
		<defs>
			<rect id="SVGID_1_" width="750" height="500"/>
		</defs>
		<clipPath id="SVGID_00000087373658545602177100000004204917853945594534_">
			<use xlink:href="#SVGID_1_"  style="overflow:visible;"/>
		</clipPath>
		<g style="clip-path:url(#SVGID_00000087373658545602177100000004204917853945594534_);">
			
				<linearGradient id="SVGID_00000070812164828885437230000006410168791643203481_" gradientUnits="userSpaceOnUse" x1="738.975" y1="-51.2904" x2="468.9887" y2="172.1982">
				<stop  offset="0" style="stop-color:#9C37B5"/>
				<stop  offset="1" style="stop-color:#7B2091"/>
			</linearGradient>
			<rect style="fill:url(#SVGID_00000070812164828885437230000006410168791643203481_);" width="750" height="500"/>
			<path style="opacity:0.3;fill:#0A0530;" d="M800.083,380.816l-0.833-0.833c-11.615-11.615-30.446-11.615-42.06,0l-23.321,23.321
				c-11.615,11.615-30.446,11.615-42.061,0l-0.833-0.833c-11.615-11.615-11.615-30.446,0-42.06l65.381-65.382
				c11.615-11.615,11.615-30.446,0-42.061l-0.833-0.833c-11.615-11.615-30.446-11.615-42.061,0v0
				c-11.615,11.615-30.446,11.615-42.061,0l-0.833-0.833c-11.615-11.615-11.615-30.446,0-42.061l34.981-34.981
				c11.615-11.615,11.615-30.446,0-42.061l-0.833-0.833c-11.615-11.615-30.446-11.615-42.061,0l-75.376,75.376
				c-11.615,11.615-30.446,11.615-42.061,0l-0.833-0.833c-11.615-11.615-11.615-30.446,0-42.061l29.151-29.151
				c11.615-11.615,11.615-30.446,0-42.061l-0.833-0.833c-11.615-11.615-30.446-11.615-42.061,0l-54.138,54.137
				c-11.615,11.615-30.446,11.615-42.06,0l-0.833-0.833c-11.615-11.615-11.615-30.446,0-42.061l103.61-103.61
				c11.615-11.615,11.615-30.446,0-42.06l-0.833-0.833c-11.615-11.615-30.446-11.615-42.061,0L358.865,92.011
				c-11.615,11.615-30.446,11.615-42.061,0l-0.833-0.833c-11.615-11.615-11.615-30.446,0-42.061l65.381-65.382
				c11.615-11.615,11.615-30.446,0-42.061l-0.833-0.833c-11.615-11.615-30.446-11.615-42.06,0v0
				c-11.615,11.615-30.446,11.615-42.061,0l-0.833-0.833c-11.615-11.615-11.615-30.446,0-42.061l34.981-34.981
				c11.615-11.615,11.615-30.446,0-42.061l-0.833-0.833c-11.615-11.615-30.446-11.615-42.06,0l-75.376,75.376
				c-11.615,11.615-30.446,11.615-42.061,0l-0.833-0.833c-11.615-11.615-11.615-30.446,0-42.06l29.151-29.151
				c11.615-11.615,11.615-30.446,0-42.061l-0.833-0.833c-11.615-11.615-30.446-11.615-42.061,0l-54.138,54.138
				c-11.615,11.615-30.446,11.615-42.06,0l-0.833-0.833c-11.615-11.615-30.446-11.615-42.06,0l-480.206,480.206l42.893,42.893
				l42.894,42.894l42.894,42.894l42.893,42.893l42.894,42.894l42.894,42.894l38.118-38.118l42.894,42.893l-27.794,27.794
				l42.894,42.893l21.532-21.532l42.893,42.894l42.894,42.894l42.894,42.893l42.894,42.894l42.894,42.893l42.894,42.894
				l38.118-38.119l42.893,42.894l-27.794,27.794l42.893,42.893l535.263-535.263C811.698,411.261,811.698,392.43,800.083,380.816z"/>
			
				<linearGradient id="SVGID_00000011726600852198914180000012285607097895958689_" gradientUnits="userSpaceOnUse" x1="442.7231" y1="65.3505" x2="163.737" y2="348.8368">
				<stop  offset="0" style="stop-color:#7D39AA"/>
				<stop  offset="1" style="stop-color:#551C82"/>
			</linearGradient>
			<path style="fill:url(#SVGID_00000011726600852198914180000012285607097895958689_);" d="M431.243,81.296l103.61-103.61
				c11.615-11.615,11.615-30.446,0-42.061l-0.833-0.833c-11.615-11.615-30.446-11.615-42.061,0L356.493,70.259
				c-11.615,11.615-30.446,11.615-42.061,0l-0.833-0.833c-11.615-11.615-11.615-30.446,0-42.061l65.382-65.382
				c11.615-11.615,11.615-30.446,0-42.06l-0.833-0.833c-11.615-11.615-30.446-11.615-42.061,0l0,0
				c-11.615,11.615-30.446,11.615-42.061,0l-0.833-0.833c-11.615-11.615-11.615-30.446,0-42.061l34.981-34.981
				c11.615-11.615,11.615-30.446,0-42.061l-0.833-0.833c-11.615-11.615-30.446-11.615-42.06,0l-75.376,75.376
				c-11.615,11.615-30.446,11.615-42.061,0l-0.833-0.833c-11.615-11.615-11.615-30.446,0-42.061l29.151-29.151
				c11.615-11.615,11.615-30.446,0-42.06l-0.833-0.833c-11.615-11.615-30.446-11.615-42.061,0l-54.138,54.138
				c-11.615,11.615-30.446,11.615-42.06,0l-0.833-0.833c-11.615-11.615-30.446-11.615-42.061,0l-480.206,480.206l42.894,42.893
				l42.894,42.894l42.894,42.894l42.893,42.894l42.894,42.894l42.894,42.894l38.118-38.118l42.894,42.893l-27.794,27.794
				l42.894,42.894l21.532-21.532l42.893,42.894l42.894,42.893l42.894,42.894l42.894,42.894l42.894,42.893l42.894,42.893
				l38.118-38.118l42.894,42.894l-27.794,27.794l42.893,42.893l535.263-535.263c11.615-11.615,11.615-30.446,0-42.06l-0.833-0.833
				c-11.615-11.615-30.446-11.615-42.06,0l-23.321,23.321c-11.615,11.615-30.446,11.615-42.06,0l-0.833-0.833
				c-11.615-11.615-11.615-30.446,0-42.06l65.382-65.382c11.615-11.615,11.615-30.446,0-42.061l-0.833-0.833
				c-11.615-11.615-30.446-11.615-42.061,0l0,0c-11.615,11.615-30.446,11.615-42.061,0l-0.833-0.833
				c-11.615-11.615-11.615-30.446,0-42.06l34.981-34.981c11.615-11.615,11.615-30.446,0-42.061l-0.833-0.833
				c-11.615-11.615-30.446-11.615-42.061,0L584.91,184.99c-11.615,11.615-30.446,11.615-42.06,0l-0.833-0.833
				c-11.615-11.615-11.615-30.446,0-42.061l29.151-29.151c11.615-11.615,11.615-30.446,0-42.061l-0.833-0.833
				c-11.615-11.615-30.446-11.615-42.06,0l-54.138,54.137c-11.615,11.615-30.446,11.615-42.061,0l-0.833-0.833
				C419.628,111.742,419.628,92.911,431.243,81.296z"/>
			<path style="opacity:0.3;fill:#0A0530;" d="M704.676,698.71c11.615-11.615,11.615-30.446,0-42.061l-0.833-0.833
				c-11.615-11.615-30.446-11.615-42.06,0l-29.151,29.151c-11.615,11.615-30.446,11.615-42.06,0l-0.833-0.833
				c-11.615-11.615-11.615-30.446,0-42.061l75.376-75.376c11.615-11.615,11.615-30.446,0-42.06l-0.833-0.833
				c-11.615-11.615-30.446-11.615-42.06,0l-34.981,34.981c-11.615,11.615-30.446,11.615-42.061,0l-0.833-0.833
				c-11.615-11.615-11.615-30.446,0-42.061h0c11.615-11.615,11.615-30.446,0-42.06l-0.833-0.833
				c-11.615-11.615-30.446-11.615-42.061,0L436.07,538.38c-11.615,11.615-30.446,11.615-42.061,0l-0.833-0.833
				c-11.615-11.615-11.615-30.446,0-42.061L528.643,360.02c11.615-11.615,11.615-30.446,0-42.06l-0.833-0.833
				c-11.615-11.615-30.446-11.615-42.061,0l-103.61,103.61c-11.615,11.615-30.446,11.615-42.061,0l-0.833-0.833
				c-11.615-11.615-11.615-30.446,0-42.061l54.137-54.138c11.615-11.615,11.615-30.446,0-42.06l-0.833-0.833
				c-11.615-11.615-30.446-11.615-42.061,0l-29.151,29.151c-11.615,11.615-30.446,11.615-42.061,0l-0.833-0.833
				c-11.615-11.615-11.615-30.446,0-42.06l75.376-75.376c11.615-11.615,11.615-30.446,0-42.061l-0.833-0.833
				c-11.615-11.615-30.446-11.615-42.061,0l-34.981,34.981c-11.615,11.615-30.446,11.615-42.061,0l-0.833-0.833
				c-11.615-11.615-11.615-30.446,0-42.061v0c11.615-11.615,11.615-30.446,0-42.061l-0.833-0.833
				c-11.615-11.615-30.446-11.615-42.061,0l-65.381,65.381c-11.615,11.615-30.446,11.615-42.061,0l-0.833-0.833
				c-11.615-11.615-11.615-30.446,0-42.061l23.321-23.321c11.615-11.615,11.615-30.446,0-42.06l-0.833-0.833
				c-11.615-11.615-30.446-11.615-42.06,0L-472.951,589.53l42.893,42.893l27.794-27.794l42.893,42.893l-38.118,38.119l42.894,42.894
				l42.894,42.893l42.894,42.894l42.894,42.894l42.893,42.894l42.894,42.893l-21.532,21.532l42.894,42.894l27.794-27.794
				l42.893,42.893l-38.119,38.119l42.894,42.894l42.894,42.894l42.893,42.893l42.894,42.894l42.894,42.894l42.894,42.893
				l480.206-480.206c11.615-11.615,11.615-30.446,0-42.06l-0.833-0.833c-11.615-11.615-11.615-30.446,0-42.06L704.676,698.71z"/>
			<path style="fill:none;stroke:#FFFFFF;stroke-miterlimit:10;" d="M-60.595,53.678c0,0,109.428-44.678,174.512-61.678
				C179-25,186,21.011,162,56.506s13.654,159.218,260.827,100.856S512,43.407,593,30.703S795,35,795,35"/>
			
				<linearGradient id="SVGID_00000008145447490790240450000005305253549308757131_" gradientUnits="userSpaceOnUse" x1="256.7231" y1="502.2003" x2="892.9701" y2="502.2003" gradientTransform="matrix(-1 0 0 -1 1265.2625 899.1493)">
				<stop  offset="0" style="stop-color:#E535AB"/>
				<stop  offset="1" style="stop-color:#9C37B5"/>
			</linearGradient>
			<path style="fill:url(#SVGID_00000008145447490790240450000005305253549308757131_);" d="M372.292,436.894
				c0,0,92.192,9.231,110.827-5.1c18.634-14.331-26.249-24.014,27.301-35.397c53.55-11.384,140.568-30.305,97.128,6.702
				c-23.907,20.367-36.313,42.48,12.613,27.089c48.926-15.391,142.926-44.058,129.593-22.724s-41.024,40.072,9.821,27.703
				c50.845-12.369,101.263-32.213,138.054-31.291c36.791,0.922,88.737,35.6,107.097,12.928c18.36-22.672-32.973-55.121-81.64-44.897
				c-48.667,10.224-129.523,38.814-144.095,39.186c-14.572,0.372,39.815-35.78,19.955-41.704
				c-19.86-5.924-150.321,41.999-161.424,41.704c-11.103-0.295,63.31-55.638,32.012-56.961
				c-31.298-1.324-193.214,23.017-207.115,36.358c-7.312,7.017,21.226,24.806,5.28,32.224
				C451.753,430.13,372.292,436.894,372.292,436.894z"/>
			<g style="opacity:0.3;">
				<path style="fill:#0A0530;" d="M449.348,439.315l15.497-15.497c-20.841,6.971-92.553,13.076-92.553,13.076
					S416.034,441.273,449.348,439.315z"/>
				<path style="fill:#0A0530;" d="M472.615,416.048l40.818-40.818c-26.278,5.409-46.488,10.916-51.013,15.258
					C456.824,395.858,472.225,407.537,472.615,416.048z"/>
			</g>
			<g>
				<path style="fill:#995BC1;" d="M209.906-126.302c-11.615,11.615-30.446,11.615-42.061,0l-0.833-0.833
					c-11.615-11.615-11.615-30.446,0-42.061c-2.996,2.585-5.421,5.877-7.11,9.537c-1.673,3.67-2.577,7.718-2.621,11.797
					c-0.08,4.082,0.757,8.18,2.319,11.974c1.574,3.79,4.023,7.232,6.892,10.105c2.875,2.866,6.314,5.319,10.106,6.888
					c3.794,1.565,7.891,2.397,11.973,2.319c4.078-0.043,8.127-0.948,11.796-2.62C204.028-120.883,207.32-123.308,209.906-126.302z"
					/>
				<path style="fill:#995BC1;" d="M314.753-71.183c4.078-0.043,8.127-0.948,11.796-2.62c3.661-1.687,6.952-4.113,9.539-7.107
					c-11.615,11.615-30.446,11.615-42.061,0l-0.833-0.833c-11.615-11.615-11.615-30.446,0-42.061
					c-2.996,2.585-5.421,5.877-7.11,9.537c-1.673,3.67-2.577,7.718-2.621,11.797c-0.08,4.082,0.757,8.18,2.319,11.974
					c1.574,3.79,4.023,7.232,6.892,10.105c2.875,2.866,6.314,5.319,10.106,6.888C306.574-71.937,310.672-71.104,314.753-71.183z"/>
				<path style="fill:#995BC1;" d="M357.402-88.573c7.63,0.263,14.955,3.545,20.226,9.016c5.474,5.27,8.757,12.595,9.02,20.226
					c0.13,3.801-0.434,7.66-1.759,11.287c-1.292,3.642-3.332,7.032-5.908,10.028c11.615-11.615,11.615-30.446,0-42.06l-0.833-0.833
					c-11.615-11.615-30.446-11.615-42.061,0l0,0c2.998-2.575,6.387-4.615,10.029-5.905
					C349.743-88.139,353.601-88.703,357.402-88.573z"/>
				<path style="fill:#995BC1;" d="M491.959-65.207c2.998-2.575,6.387-4.615,10.029-5.905c3.626-1.324,7.485-1.888,11.285-1.758
					c7.63,0.263,14.955,3.545,20.226,9.016c5.474,5.27,8.756,12.595,9.02,20.226c0.13,3.801-0.434,7.66-1.759,11.287
					c-1.292,3.642-3.332,7.032-5.908,10.028c11.615-11.615,11.615-30.446,0-42.061l-0.833-0.833
					C522.405-76.822,503.574-76.822,491.959-65.207z"/>
				<path style="fill:#995BC1;" d="M577.076,102.918c-1.292,3.642-3.332,7.032-5.908,10.028c11.615-11.615,11.615-30.446,0-42.061
					l-0.833-0.833c-11.615-11.615-30.446-11.615-42.06,0c2.997-2.575,6.387-4.615,10.029-5.905
					c3.626-1.324,7.485-1.888,11.285-1.758c7.63,0.263,14.955,3.544,20.226,9.016c5.474,5.27,8.757,12.595,9.02,20.226
					C578.965,95.432,578.401,99.291,577.076,102.918z"/>
				<path style="fill:#995BC1;" d="M688.604,338.657c-2.996,2.585-5.421,5.877-7.11,9.537c-1.673,3.67-2.577,7.718-2.621,11.797
					c-0.08,4.082,0.757,8.18,2.319,11.974c1.574,3.79,4.023,7.232,6.892,10.105c2.875,2.866,6.314,5.319,10.106,6.888
					c3.794,1.564,7.892,2.397,11.973,2.319c4.078-0.043,8.127-0.948,11.796-2.62c3.661-1.687,6.953-4.113,9.539-7.107
					c-11.615,11.615-30.446,11.615-42.06,0l-0.833-0.833C676.99,369.103,676.99,350.272,688.604,338.657z"/>
				<path style="fill:#995BC1;" d="M313.6,27.365c-2.996,2.585-5.421,5.877-7.11,9.537c-1.673,3.67-2.577,7.718-2.621,11.797
					c-0.08,4.082,0.757,8.18,2.319,11.974c1.574,3.79,4.023,7.232,6.892,10.105c2.875,2.866,6.314,5.319,10.106,6.888
					c3.794,1.564,7.891,2.397,11.973,2.319c4.078-0.043,8.127-0.948,11.796-2.62c3.661-1.688,6.953-4.113,9.539-7.107
					c-11.615,11.615-30.446,11.615-42.061,0l-0.833-0.833C301.985,57.811,301.985,38.98,313.6,27.365z"/>
				<path style="fill:#995BC1;" d="M584.91,184.99c-11.615,11.615-30.446,11.615-42.06,0l-0.833-0.833
					c-11.615-11.615-11.615-30.446,0-42.061c-2.996,2.585-5.421,5.877-7.11,9.537c-1.673,3.67-2.577,7.718-2.621,11.797
					c-0.08,4.082,0.757,8.18,2.319,11.974c1.574,3.79,4.023,7.232,6.892,10.105c2.875,2.866,6.314,5.319,10.106,6.889
					c3.794,1.564,7.891,2.397,11.973,2.319c4.078-0.043,8.127-0.948,11.796-2.62C579.032,190.41,582.324,187.984,584.91,184.99z"/>
				<path style="fill:#995BC1;" d="M431.243,81.296c-2.996,2.585-5.421,5.877-7.11,9.537c-1.673,3.67-2.577,7.718-2.621,11.797
					c-0.08,4.082,0.757,8.18,2.319,11.974c1.574,3.79,4.023,7.232,6.892,10.105c2.875,2.866,6.314,5.319,10.106,6.888
					c3.794,1.564,7.892,2.397,11.973,2.319c4.078-0.043,8.127-0.948,11.796-2.62c3.661-1.687,6.953-4.113,9.539-7.107
					c-11.615,11.615-30.446,11.615-42.061,0l-0.833-0.833C419.628,111.742,419.628,92.911,431.243,81.296z"/>
				<path style="fill:#995BC1;" d="M660.286,109.614c2.998-2.575,6.387-4.615,10.029-5.905c3.626-1.324,7.485-1.888,11.285-1.758
					c7.63,0.263,14.955,3.544,20.226,9.016c5.474,5.27,8.756,12.595,9.02,20.226c0.13,3.801-0.434,7.66-1.759,11.287
					c-1.292,3.642-3.332,7.032-5.908,10.028c11.615-11.615,11.615-30.446,0-42.061l-0.833-0.833
					C690.732,97.999,671.901,97.999,660.286,109.614z"/>
				<path style="fill:#995BC1;" d="M669.032,230.382l-0.833-0.833c-11.615-11.615-11.615-30.446,0-42.06
					c-2.996,2.585-5.421,5.877-7.11,9.537c-1.673,3.67-2.577,7.719-2.621,11.797c-0.08,4.082,0.757,8.18,2.319,11.974
					c1.574,3.79,4.023,7.232,6.892,10.105c2.875,2.866,6.314,5.319,10.106,6.888c3.794,1.564,7.892,2.397,11.973,2.319
					c4.078-0.043,8.126-0.948,11.796-2.62c3.661-1.687,6.953-4.113,9.539-7.107C699.477,241.997,680.646,241.997,669.032,230.382z"
					/>
				<path style="fill:#995BC1;" d="M711.092,230.382L711.092,230.382c2.997-2.574,6.387-4.615,10.029-5.905
					c3.626-1.324,7.485-1.888,11.285-1.758c7.63,0.263,14.955,3.544,20.226,9.016c5.474,5.27,8.757,12.595,9.02,20.226
					c0.13,3.801-0.434,7.66-1.759,11.287c-1.292,3.642-3.332,7.031-5.908,10.028c11.615-11.615,11.615-30.446,0-42.061l-0.833-0.833
					C741.538,218.768,722.707,218.768,711.092,230.382z"/>
				<path style="fill:#995BC1;" d="M285.282-201.678c2.998-2.575,6.387-4.615,10.029-5.905c3.626-1.324,7.485-1.888,11.285-1.758
					c7.63,0.263,14.955,3.544,20.226,9.016c5.474,5.27,8.757,12.595,9.02,20.226c0.13,3.801-0.434,7.66-1.759,11.287
					c-1.292,3.641-3.332,7.031-5.908,10.028c11.615-11.615,11.615-30.446,0-42.061l-0.833-0.833
					C315.728-213.293,296.896-213.293,285.282-201.678z"/>
				<path style="fill:#995BC1;" d="M754.819,358.23c2.998-2.575,6.387-4.615,10.029-5.905c3.626-1.324,7.485-1.888,11.285-1.758
					c7.63,0.263,14.955,3.544,20.226,9.016c5.474,5.27,8.757,12.595,9.02,20.226c0.13,3.801-0.434,7.66-1.759,11.287
					c-1.292,3.641-3.332,7.031-5.908,10.028c11.615-11.615,11.615-30.446,0-42.06l-0.833-0.833
					C785.265,346.615,766.433,346.615,754.819,358.23z"/>
				<path style="fill:#995BC1;" d="M202.071-208.374c-1.292,3.641-3.332,7.031-5.908,10.027c11.615-11.615,11.615-30.446,0-42.06
					l-0.833-0.833c-11.615-11.615-30.446-11.615-42.061,0c2.998-2.574,6.387-4.615,10.029-5.905
					c3.626-1.324,7.485-1.888,11.285-1.758c7.63,0.263,14.955,3.545,20.226,9.016c5.474,5.27,8.757,12.595,9.02,20.226
					C203.96-215.86,203.396-212.001,202.071-208.374z"/>
			</g>
			
				<linearGradient id="SVGID_00000147915771166406727260000015301587507338253716_" gradientUnits="userSpaceOnUse" x1="377.9197" y1="302.3441" x2="203.9285" y2="534.8324">
				<stop  offset="0" style="stop-color:#683AA3"/>
				<stop  offset="1" style="stop-color:#401D77"/>
			</linearGradient>
			<path style="fill:url(#SVGID_00000147915771166406727260000015301587507338253716_);" d="M382.14,394.934l103.61-103.61
				c11.615-11.615,30.446-11.615,42.061,0l0.833,0.833c11.615,11.615,11.615,30.446,0,42.061L393.177,469.684
				c-11.615,11.615-11.615,30.446,0,42.061l0.833,0.833c11.615,11.615,30.446,11.615,42.061,0l65.382-65.382
				c11.615-11.615,30.446-11.615,42.061,0l0.833,0.833c11.615,11.615,11.615,30.446,0,42.061l0,0
				c-11.615,11.615-11.615,30.446,0,42.061l0.833,0.833c11.615,11.615,30.446,11.615,42.061,0l34.981-34.981
				c11.615-11.615,30.446-11.615,42.06,0l0.833,0.833c11.615,11.615,11.615,30.446,0,42.06l-75.376,75.376
				c-11.615,11.615-11.615,30.446,0,42.061l0.833,0.833c11.615,11.615,30.446,11.615,42.06,0l29.151-29.151
				c11.615-11.615,30.446-11.615,42.06,0l0.833,0.833c11.615,11.615,11.615,30.446,0,42.06l-54.138,54.138
				c-11.615,11.615-11.615,30.446,0,42.06l0.833,0.833c11.615,11.615,11.615,30.446,0,42.06l-480.206,480.206l-42.894-42.893
				l-42.894-42.894l-42.894-42.894l-42.893-42.894l-42.894-42.893l-42.894-42.894l38.119-38.118l-42.893-42.893l-27.794,27.794
				l-42.894-42.893l21.532-21.532l-42.894-42.894l-42.894-42.893l-42.893-42.894l-42.894-42.894l-42.894-42.894l-42.894-42.893
				l38.118-38.119l-42.894-42.894l-27.794,27.794l-42.894-42.894L62.312,28.465c11.615-11.615,30.446-11.615,42.06,0l0.833,0.833
				c11.615,11.615,11.615,30.446,0,42.06L81.885,94.679c-11.615,11.615-11.615,30.446,0,42.061l0.833,0.833
				c11.615,11.615,30.446,11.615,42.061,0l65.381-65.382c11.615-11.615,30.446-11.615,42.061,0l0.833,0.833
				c11.615,11.615,11.615,30.446,0,42.061l0,0c-11.615,11.615-11.615,30.446,0,42.061l0.833,0.833
				c11.615,11.615,30.446,11.615,42.061,0l34.981-34.981c11.615-11.615,30.446-11.615,42.061,0l0.833,0.833
				c11.615,11.615,11.615,30.446,0,42.061l-75.376,75.376c-11.615,11.615-11.615,30.446,0,42.061l0.833,0.833
				c11.615,11.615,30.446,11.615,42.06,0l29.151-29.151c11.615-11.615,30.446-11.615,42.061,0l0.833,0.833
				c11.615,11.615,11.615,30.446,0,42.061l-54.138,54.137c-11.615,11.615-11.615,30.446,0,42.061l0.833,0.833
				C351.694,406.549,370.525,406.549,382.14,394.934z"/>
			<path style="opacity:0.3;fill:#0A0530;" d="M302.689,632.117l-0.833-0.833c-11.615-11.615-30.446-11.615-42.06,0l-23.321,23.321
				c-11.615,11.615-30.446,11.615-42.061,0l-0.833-0.833c-11.615-11.615-11.615-30.446,0-42.061l65.382-65.382
				c11.615-11.615,11.615-30.446,0-42.061l-0.833-0.833c-11.615-11.615-30.446-11.615-42.061,0l0,0
				c-11.615,11.615-30.446,11.615-42.061,0l-0.833-0.833c-11.615-11.615-11.615-30.446,0-42.061l34.981-34.981
				c11.615-11.615,11.615-30.446,0-42.06l-0.833-0.833c-11.615-11.615-30.446-11.615-42.061,0l-75.376,75.376
				c-11.615,11.615-30.446,11.615-42.061,0l-0.833-0.833c-11.615-11.615-11.615-30.446,0-42.061L76.144,386
				c11.615-11.615,11.615-30.446,0-42.061l-0.833-0.833c-11.615-11.615-30.446-11.615-42.061,0l-54.138,54.138
				c-11.615,11.615-30.446,11.615-42.061,0l-0.833-0.833c-11.615-11.615-11.615-30.446,0-42.06l103.61-103.61
				c11.615-11.615,11.615-30.446,0-42.061l-0.833-0.833c-11.615-11.615-30.446-11.615-42.06,0l-135.466,135.466
				c-11.615,11.615-30.446,11.615-42.061,0l-0.833-0.833c-11.615-11.615-11.615-30.446,0-42.061l65.381-65.382
				c11.615-11.615,11.615-30.446,0-42.06l-0.833-0.833c-11.615-11.615-30.446-11.615-42.061,0h0
				c-11.615,11.615-30.446,11.615-42.061,0l-0.833-0.833c-11.615-11.615-11.615-30.446,0-42.061l34.981-34.981
				c11.615-11.615,11.615-30.446,0-42.061l-0.833-0.833c-11.615-11.615-30.446-11.615-42.06,0l-75.376,75.376
				c-11.615,11.615-30.446,11.615-42.061,0l-0.833-0.833c-11.615-11.615-11.615-30.446,0-42.061l29.151-29.151
				c11.615-11.615,11.615-30.446,0-42.06l-0.833-0.833c-11.615-11.615-30.446-11.615-42.061,0l-54.138,54.138
				c-11.615,11.615-30.446,11.615-42.061,0l-0.833-0.833c-11.615-11.615-30.446-11.615-42.06,0l-480.206,480.206l42.893,42.893
				l42.894,42.894l42.894,42.893l42.893,42.893l42.894,42.894l42.893,42.894l38.119-38.119l42.894,42.894l-27.794,27.794
				l42.893,42.894l21.532-21.532l42.894,42.893l42.893,42.893l42.894,42.894l42.893,42.893l42.894,42.894l42.894,42.894
				l38.118-38.118l42.894,42.894l-27.794,27.794l42.893,42.893l535.263-535.263C314.303,662.563,314.303,643.732,302.689,632.117z"
				/>
			<g>
				<path style="fill:#8565B7;" d="M589.738,616.272c-11.615,11.615-11.615,30.446,0,42.061l0.833,0.833
					c11.615,11.615,30.446,11.615,42.06,0c-2.585,2.996-5.877,5.421-9.537,7.11c-3.67,1.673-7.718,2.577-11.797,2.621
					c-4.082,0.08-8.18-0.757-11.974-2.319c-3.79-1.574-7.232-4.023-10.105-6.892c-2.866-2.875-5.319-6.314-6.888-10.106
					c-1.565-3.794-2.398-7.892-2.319-11.973c0.043-4.078,0.948-8.127,2.62-11.796C584.318,622.149,586.744,618.858,589.738,616.272z
					"/>
				<path style="fill:#8565B7;" d="M534.618,511.424c0.043-4.078,0.948-8.127,2.62-11.796c1.688-3.661,4.113-6.953,7.107-9.539
					c-11.615,11.615-11.615,30.446,0,42.061l0.833,0.833c11.615,11.615,30.446,11.615,42.061,0c-2.585,2.996-5.877,5.421-9.537,7.11
					c-3.67,1.673-7.718,2.577-11.797,2.621c-4.082,0.08-8.18-0.757-11.974-2.319c-3.79-1.574-7.232-4.023-10.105-6.892
					c-2.866-2.875-5.319-6.314-6.888-10.106C535.373,519.603,534.54,515.505,534.618,511.424z"/>
				<path style="fill:#8565B7;" d="M552.008,468.775c-0.263-7.63-3.544-14.955-9.016-20.226c-5.27-5.474-12.595-8.757-20.226-9.02
					c-3.801-0.13-7.66,0.434-11.287,1.759c-3.642,1.292-7.031,3.332-10.028,5.908c11.615-11.615,30.446-11.615,42.061,0l0.833,0.833
					c11.615,11.615,11.615,30.446,0,42.061l0,0c2.575-2.998,4.615-6.387,5.905-10.029
					C551.575,476.435,552.139,472.576,552.008,468.775z"/>
				<path style="fill:#8565B7;" d="M528.643,334.218c2.575-2.997,4.615-6.387,5.905-10.029c1.324-3.626,1.888-7.485,1.758-11.285
					c-0.263-7.63-3.544-14.955-9.016-20.226c-5.27-5.474-12.595-8.757-20.226-9.02c-3.801-0.13-7.66,0.434-11.287,1.758
					c-3.642,1.292-7.031,3.332-10.028,5.908c11.615-11.615,30.446-11.615,42.061,0l0.833,0.833
					C540.257,303.772,540.258,322.603,528.643,334.218z"/>
				<path style="fill:#8565B7;" d="M360.518,249.101c-3.641,1.292-7.031,3.332-10.028,5.908c11.615-11.615,30.446-11.615,42.061,0
					l0.833,0.833c11.615,11.615,11.615,30.446,0,42.061c2.575-2.998,4.615-6.387,5.905-10.029c1.324-3.626,1.888-7.485,1.758-11.285
					c-0.263-7.63-3.545-14.955-9.016-20.226c-5.27-5.474-12.595-8.757-20.226-9.02C368.003,247.213,364.144,247.777,360.518,249.101
					z"/>
				<path style="fill:#8565B7;" d="M124.778,137.573c-2.585,2.996-5.877,5.421-9.537,7.11c-3.67,1.673-7.718,2.577-11.797,2.621
					c-4.082,0.08-8.18-0.757-11.974-2.319c-3.79-1.574-7.232-4.023-10.105-6.892c-2.866-2.875-5.319-6.314-6.888-10.106
					c-1.564-3.794-2.397-7.892-2.319-11.973c0.043-4.078,0.948-8.127,2.62-11.796c1.687-3.661,4.113-6.953,7.107-9.539
					c-11.615,11.615-11.615,30.446,0,42.061l0.833,0.833C94.332,149.188,113.164,149.188,124.778,137.573z"/>
				<path style="fill:#8565B7;" d="M436.07,512.578c-2.585,2.996-5.877,5.421-9.537,7.11c-3.67,1.673-7.719,2.577-11.797,2.621
					c-4.082,0.08-8.18-0.757-11.974-2.319c-3.79-1.574-7.232-4.023-10.105-6.892c-2.866-2.875-5.319-6.314-6.889-10.106
					c-1.564-3.794-2.397-7.892-2.319-11.973c0.043-4.078,0.948-8.127,2.62-11.796c1.687-3.661,4.113-6.953,7.107-9.539
					c-11.615,11.615-11.615,30.446,0,42.061l0.833,0.833C405.625,524.192,424.456,524.192,436.07,512.578z"/>
				<path style="fill:#8565B7;" d="M278.445,241.267c-11.615,11.615-11.615,30.446,0,42.061l0.833,0.833
					c11.615,11.615,30.446,11.615,42.06,0c-2.585,2.996-5.877,5.421-9.537,7.11c-3.67,1.673-7.718,2.577-11.797,2.621
					c-4.082,0.08-8.18-0.757-11.974-2.319c-3.79-1.574-7.232-4.023-10.105-6.892c-2.866-2.875-5.319-6.314-6.888-10.106
					c-1.564-3.794-2.397-7.892-2.319-11.973c0.043-4.078,0.948-8.127,2.62-11.796C273.026,247.145,275.452,243.853,278.445,241.267z
					"/>
				<path style="fill:#8565B7;" d="M382.14,394.934c-2.585,2.996-5.877,5.421-9.537,7.11c-3.67,1.673-7.718,2.577-11.797,2.621
					c-4.082,0.08-8.18-0.757-11.974-2.319c-3.79-1.574-7.232-4.023-10.105-6.892c-2.866-2.875-5.319-6.314-6.889-10.106
					c-1.564-3.794-2.397-7.892-2.319-11.973c0.043-4.078,0.948-8.127,2.62-11.796c1.687-3.661,4.113-6.953,7.107-9.539
					c-11.615,11.615-11.615,30.446,0,42.061l0.833,0.833C351.694,406.549,370.525,406.549,382.14,394.934z"/>
				<path style="fill:#8565B7;" d="M353.822,165.891c2.574-2.998,4.615-6.387,5.905-10.029c1.324-3.626,1.888-7.485,1.758-11.285
					c-0.263-7.63-3.544-14.955-9.016-20.226c-5.27-5.474-12.595-8.757-20.226-9.02c-3.801-0.13-7.66,0.434-11.287,1.759
					c-3.642,1.292-7.031,3.332-10.028,5.908c11.615-11.615,30.446-11.615,42.061,0l0.833,0.833
					C365.436,135.445,365.436,154.276,353.822,165.891z"/>
				<path style="fill:#8565B7;" d="M233.053,157.146l0.833,0.833c11.615,11.615,30.446,11.615,42.061,0
					c-2.585,2.996-5.877,5.421-9.537,7.11c-3.67,1.673-7.718,2.577-11.797,2.621c-4.082,0.08-8.18-0.757-11.974-2.319
					c-3.79-1.574-7.232-4.023-10.105-6.892c-2.866-2.875-5.319-6.314-6.888-10.106c-1.564-3.794-2.398-7.892-2.319-11.973
					c0.043-4.078,0.948-8.127,2.62-11.796c1.687-3.661,4.113-6.953,7.107-9.539C221.438,126.7,221.438,145.531,233.053,157.146z"/>
				<path style="fill:#8565B7;" d="M233.053,115.085L233.053,115.085c2.574-2.998,4.615-6.387,5.905-10.029
					c1.324-3.626,1.888-7.485,1.758-11.285c-0.262-7.63-3.544-14.955-9.016-20.226c-5.27-5.474-12.595-8.757-20.226-9.02
					c-3.801-0.13-7.66,0.434-11.287,1.759c-3.642,1.292-7.031,3.332-10.028,5.908c11.615-11.615,30.446-11.615,42.061,0l0.833,0.833
					C244.668,84.639,244.668,103.47,233.053,115.085z"/>
				<path style="fill:#8565B7;" d="M665.114,540.895c2.575-2.997,4.615-6.387,5.905-10.029c1.324-3.626,1.888-7.485,1.758-11.285
					c-0.263-7.63-3.544-14.955-9.016-20.226c-5.27-5.474-12.595-8.757-20.226-9.02c-3.801-0.13-7.66,0.434-11.287,1.759
					c-3.641,1.292-7.032,3.332-10.028,5.908c11.615-11.615,30.446-11.615,42.06,0l0.833,0.833
					C676.728,510.45,676.728,529.281,665.114,540.895z"/>
				<path style="fill:#8565B7;" d="M105.206,71.358c2.575-2.998,4.615-6.387,5.905-10.029c1.324-3.626,1.888-7.485,1.758-11.285
					c-0.263-7.63-3.545-14.955-9.016-20.226c-5.27-5.474-12.595-8.757-20.226-9.02c-3.801-0.13-7.66,0.434-11.287,1.759
					c-3.642,1.292-7.032,3.332-10.028,5.908c11.615-11.615,30.446-11.615,42.06,0l0.833,0.833
					C116.82,40.913,116.82,59.744,105.206,71.358z"/>
				<path style="fill:#8565B7;" d="M671.81,624.106c-3.642,1.292-7.031,3.332-10.028,5.908c11.615-11.615,30.446-11.615,42.06,0
					l0.833,0.833c11.615,11.615,11.615,30.446,0,42.06c2.574-2.997,4.615-6.387,5.905-10.029c1.324-3.626,1.888-7.485,1.758-11.285
					c-0.263-7.63-3.544-14.955-9.016-20.226c-5.269-5.474-12.595-8.757-20.226-9.02C679.295,622.217,675.436,622.781,671.81,624.106
					z"/>
			</g>
			<path style="fill:none;stroke:#FFFFFF;stroke-miterlimit:10;" d="M849.951,451.064c0,0-3.918-64.345-115.832-59.807
				c-111.914,4.537-437.7,133.847-488.774,114.988c-51.074-18.86,37.593-59.146-78.407-56.67c-116,2.477-250,56.67-250,56.67"/>
			
				<linearGradient id="SVGID_00000092434123235156332670000005037298952090604942_" gradientUnits="userSpaceOnUse" x1="-40.4443" y1="267.5819" x2="330.4452" y2="267.5819">
				<stop  offset="0" style="stop-color:#9C37B5"/>
				<stop  offset="1" style="stop-color:#E535AB"/>
			</linearGradient>
			<path style="fill:url(#SVGID_00000092434123235156332670000005037298952090604942_);" d="M95.618,229.094
				c35.298-4.41-24.98,51.633,3.69,55.332s98.441-31.76,108.183-20.883c9.743,10.877-19.878,26.236,9.246,23.56
				s96.618-22.698,108.175-15.461c11.557,7.237,7.859,23.257-38.832,27.96c-46.691,4.703-107.465,10.7-112.674,3.078
				c-5.209-7.621,14.92-23.687-0.461-20.97c-15.381,2.716-87.497,25.209-101.828,17.892c-14.331-7.317,21.489-45.16,13.874-60.151
				c-7.57-14.905-118.037,29.016-123.993,20.474C-50.936,242.811,12.729,239.45,95.618,229.094z"/>
			<path style="opacity:0.3;fill:#0A0530;" d="M-39.002,259.924c3.805,5.456,50.253-10.494,85.287-18.844
				c0.854-2.066,1.46-4.209,1.828-6.386C-9.947,241.374-48.52,246.275-39.002,259.924z"/>
			
				<linearGradient id="SVGID_00000130627618766353336390000017925638282214965394_" gradientUnits="userSpaceOnUse" x1="-24.517" y1="238.1051" x2="-150.5105" y2="382.0978">
				<stop  offset="0" style="stop-color:#4B3AA0"/>
				<stop  offset="1" style="stop-color:#251A72"/>
			</linearGradient>
			<path style="fill:url(#SVGID_00000130627618766353336390000017925638282214965394_);" d="M-77.174,336.148l103.61-103.61
				c11.615-11.615,11.615-30.446,0-42.061l-0.833-0.833c-11.615-11.615-30.446-11.615-42.061,0l-135.466,135.466
				c-11.615,11.615-30.446,11.615-42.061,0l-0.833-0.833c-11.615-11.615-11.615-30.446,0-42.061l65.382-65.382
				c11.615-11.615,11.615-30.446,0-42.061l-0.833-0.833c-11.615-11.615-30.446-11.615-42.061,0l0,0
				c-11.615,11.615-30.446,11.615-42.06,0l-0.833-0.833c-11.615-11.615-11.615-30.446,0-42.061l34.981-34.981
				c11.615-11.615,11.615-30.446,0-42.061l-0.833-0.833c-11.615-11.615-30.446-11.615-42.06,0l-75.376,75.376
				c-11.615,11.615-30.446,11.615-42.061,0l-0.833-0.833c-11.615-11.615-11.615-30.446,0-42.061l29.151-29.151
				c11.615-11.615,11.615-30.446,0-42.06l-0.833-0.833c-11.615-11.615-30.446-11.615-42.061,0l-54.138,54.138
				c-11.615,11.615-30.446,11.615-42.061,0l-0.833-0.833c-11.615-11.615-30.446-11.615-42.061,0l-480.206,480.206l42.893,42.893
				l42.894,42.894l42.894,42.894l42.893,42.894l42.894,42.893l42.894,42.894l38.119-38.118l42.893,42.893l-27.794,27.794
				l42.894,42.894l21.532-21.532l42.893,42.894l42.894,42.893l42.894,42.894l42.894,42.893l42.893,42.894l42.894,42.894
				l38.118-38.119l42.893,42.894l-27.794,27.794l42.894,42.894l535.263-535.263c11.615-11.615,11.615-30.446,0-42.06l-0.833-0.833
				c-11.615-11.615-30.446-11.615-42.06,0l-23.321,23.321c-11.615,11.615-30.446,11.615-42.061,0l-0.833-0.833
				c-11.615-11.615-11.615-30.446,0-42.061l65.381-65.382c11.615-11.615,11.615-30.446,0-42.06l-0.833-0.833
				c-11.615-11.615-30.446-11.615-42.061,0l0,0c-11.615,11.615-30.446,11.615-42.061,0l-0.833-0.833
				c-11.615-11.615-11.615-30.446,0-42.061l34.981-34.981c11.615-11.615,11.615-30.446,0-42.061l-0.833-0.833
				c-11.615-11.615-30.446-11.615-42.061,0l-75.376,75.376c-11.615,11.615-30.446,11.615-42.061,0L33.6,439.01
				c-11.615-11.615-11.615-30.446,0-42.061l29.151-29.151c11.615-11.615,11.615-30.446,0-42.061l-0.833-0.833
				c-11.615-11.615-30.446-11.615-42.061,0l-54.138,54.138c-11.615,11.615-30.446,11.615-42.061,0l-0.833-0.833
				C-88.789,366.594-88.789,347.763-77.174,336.148z"/>
			<g>
				<path style="fill:#7D7DD3;" d="M-298.511,128.55c-11.615,11.615-30.446,11.615-42.061,0l-0.833-0.833
					c-11.615-11.615-11.615-30.446,0-42.061c-2.996,2.585-5.421,5.877-7.11,9.537c-1.673,3.67-2.577,7.718-2.621,11.797
					c-0.08,4.082,0.757,8.18,2.319,11.974c1.574,3.79,4.023,7.232,6.892,10.105c2.875,2.866,6.314,5.319,10.106,6.888
					c3.794,1.564,7.892,2.398,11.973,2.319c4.078-0.043,8.127-0.948,11.796-2.62C-304.389,133.97-301.097,131.544-298.511,128.55z"
					/>
				<path style="fill:#7D7DD3;" d="M-193.664,183.67c4.078-0.043,8.127-0.948,11.796-2.62c3.661-1.688,6.953-4.113,9.539-7.107
					c-11.615,11.615-30.446,11.615-42.06,0l-0.833-0.833c-11.615-11.615-11.615-30.446,0-42.061
					c-2.996,2.585-5.421,5.877-7.11,9.537c-1.673,3.67-2.577,7.718-2.621,11.797c-0.08,4.082,0.757,8.18,2.319,11.974
					c1.574,3.79,4.023,7.232,6.892,10.105c2.875,2.866,6.314,5.319,10.106,6.889C-201.843,182.915-197.745,183.748-193.664,183.67z"
					/>
				<path style="fill:#7D7DD3;" d="M-151.015,166.279c7.63,0.263,14.955,3.544,20.226,9.016c5.474,5.27,8.757,12.595,9.02,20.226
					c0.13,3.801-0.434,7.66-1.759,11.287c-1.292,3.642-3.332,7.032-5.908,10.028c11.615-11.615,11.615-30.446,0-42.061l-0.833-0.833
					c-11.615-11.615-30.446-11.615-42.061,0l0,0c2.998-2.575,6.387-4.615,10.029-5.905
					C-158.674,166.713-154.816,166.149-151.015,166.279z"/>
				<path style="fill:#7D7DD3;" d="M-16.458,189.645c2.998-2.575,6.387-4.615,10.029-5.905c3.626-1.324,7.485-1.888,11.285-1.758
					c7.63,0.263,14.955,3.544,20.226,9.016c5.474,5.27,8.756,12.595,9.02,20.226c0.13,3.801-0.434,7.66-1.759,11.287
					c-1.292,3.641-3.332,7.031-5.908,10.028c11.615-11.615,11.615-30.446,0-42.061l-0.833-0.833
					C13.988,178.031-4.843,178.031-16.458,189.645z"/>
				<path style="fill:#7D7DD3;" d="M68.659,357.77c-1.292,3.642-3.332,7.032-5.908,10.028c11.615-11.615,11.615-30.446,0-42.061
					l-0.833-0.833c-11.615-11.615-30.446-11.615-42.061,0c2.997-2.574,6.387-4.615,10.029-5.905
					c3.626-1.324,7.485-1.888,11.285-1.758c7.63,0.263,14.955,3.544,20.226,9.016c5.474,5.27,8.756,12.595,9.02,20.226
					C70.548,350.285,69.984,354.144,68.659,357.77z"/>
				<path style="fill:#7D7DD3;" d="M180.187,593.51c-2.996,2.585-5.421,5.877-7.11,9.537c-1.673,3.67-2.577,7.719-2.621,11.797
					c-0.08,4.082,0.757,8.18,2.319,11.974c1.574,3.79,4.023,7.232,6.892,10.105c2.875,2.866,6.314,5.319,10.106,6.888
					c3.794,1.564,7.892,2.397,11.973,2.319c4.078-0.043,8.127-0.948,11.796-2.62c3.661-1.687,6.953-4.113,9.539-7.107
					c-11.615,11.615-30.446,11.615-42.061,0l-0.833-0.833C168.573,623.956,168.573,605.124,180.187,593.51z"/>
				<path style="fill:#7D7DD3;" d="M-194.817,282.218c-2.996,2.585-5.421,5.877-7.11,9.537c-1.673,3.67-2.577,7.718-2.621,11.797
					c-0.08,4.082,0.757,8.18,2.319,11.974c1.574,3.79,4.023,7.232,6.892,10.105c2.875,2.866,6.314,5.319,10.106,6.888
					c3.794,1.564,7.892,2.397,11.973,2.319c4.078-0.043,8.127-0.948,11.796-2.62c3.661-1.688,6.953-4.113,9.539-7.107
					c-11.615,11.615-30.446,11.615-42.061,0l-0.833-0.833C-206.432,312.664-206.432,293.832-194.817,282.218z"/>
				<path style="fill:#7D7DD3;" d="M76.493,439.842c-11.615,11.615-30.446,11.615-42.061,0L33.6,439.01
					c-11.615-11.615-11.615-30.446,0-42.061c-2.996,2.585-5.421,5.877-7.11,9.537c-1.673,3.67-2.577,7.718-2.621,11.797
					c-0.08,4.082,0.757,8.18,2.319,11.974c1.574,3.79,4.023,7.232,6.892,10.105c2.875,2.866,6.314,5.319,10.106,6.888
					c3.794,1.565,7.891,2.398,11.973,2.319c4.078-0.043,8.127-0.948,11.796-2.62C70.615,445.262,73.907,442.836,76.493,439.842z"/>
				<path style="fill:#7D7DD3;" d="M-77.174,336.148c-2.996,2.585-5.421,5.877-7.11,9.537c-1.673,3.67-2.577,7.718-2.621,11.797
					c-0.08,4.082,0.757,8.18,2.319,11.974c1.574,3.79,4.023,7.232,6.892,10.105c2.875,2.866,6.314,5.319,10.106,6.888
					c3.794,1.564,7.891,2.397,11.973,2.319c4.078-0.043,8.127-0.948,11.796-2.62c3.661-1.687,6.953-4.113,9.539-7.107
					c-11.615,11.615-30.446,11.615-42.061,0l-0.833-0.833C-88.789,366.594-88.789,347.763-77.174,336.148z"/>
				<path style="fill:#7D7DD3;" d="M151.869,364.466c2.998-2.574,6.387-4.615,10.029-5.905c3.626-1.324,7.485-1.888,11.285-1.758
					c7.63,0.263,14.955,3.544,20.226,9.016c5.474,5.27,8.756,12.595,9.02,20.226c0.13,3.801-0.434,7.66-1.759,11.287
					c-1.292,3.642-3.332,7.031-5.908,10.028c11.615-11.615,11.615-30.446,0-42.061l-0.833-0.833
					C182.315,352.852,163.484,352.852,151.869,364.466z"/>
				<path style="fill:#7D7DD3;" d="M160.615,485.235l-0.833-0.833c-11.615-11.615-11.615-30.446,0-42.061
					c-2.996,2.585-5.421,5.877-7.11,9.537c-1.673,3.67-2.577,7.719-2.621,11.797c-0.08,4.082,0.757,8.18,2.319,11.974
					c1.574,3.79,4.023,7.232,6.892,10.105c2.875,2.866,6.314,5.319,10.106,6.888c3.794,1.565,7.892,2.397,11.973,2.319
					c4.078-0.043,8.127-0.948,11.796-2.62c3.661-1.687,6.953-4.113,9.539-7.107C191.06,496.849,172.229,496.849,160.615,485.235z"/>
				<path style="fill:#7D7DD3;" d="M202.675,485.235L202.675,485.235c2.997-2.575,6.387-4.615,10.029-5.905
					c3.626-1.324,7.485-1.888,11.285-1.758c7.63,0.263,14.955,3.544,20.226,9.016c5.474,5.27,8.757,12.595,9.02,20.226
					c0.13,3.801-0.434,7.66-1.759,11.287c-1.292,3.641-3.332,7.031-5.908,10.027c11.615-11.615,11.615-30.446,0-42.06l-0.833-0.833
					C233.121,473.62,214.29,473.62,202.675,485.235z"/>
				<path style="fill:#7D7DD3;" d="M-223.135,53.174c2.998-2.574,6.387-4.615,10.029-5.905c3.626-1.324,7.485-1.888,11.285-1.758
					c7.63,0.263,14.955,3.544,20.226,9.016c5.474,5.27,8.757,12.595,9.02,20.226c0.13,3.801-0.434,7.66-1.759,11.287
					c-1.292,3.642-3.332,7.032-5.908,10.028c11.615-11.615,11.615-30.446,0-42.061l-0.833-0.833
					C-192.689,41.56-211.52,41.56-223.135,53.174z"/>
				<path style="fill:#7D7DD3;" d="M246.402,613.082c2.998-2.575,6.387-4.615,10.029-5.905c3.626-1.324,7.485-1.888,11.285-1.758
					c7.63,0.263,14.955,3.544,20.226,9.016c5.474,5.27,8.757,12.595,9.02,20.226c0.13,3.801-0.434,7.66-1.759,11.287
					c-1.292,3.641-3.332,7.031-5.908,10.028c11.615-11.615,11.615-30.446,0-42.06l-0.833-0.833
					C276.848,601.468,258.016,601.468,246.402,613.082z"/>
				<path style="fill:#7D7DD3;" d="M-306.345,46.478c-1.292,3.642-3.332,7.031-5.908,10.028c11.615-11.615,11.615-30.446,0-42.06
					l-0.833-0.833c-11.615-11.615-30.446-11.615-42.061,0c2.998-2.575,6.387-4.615,10.029-5.905
					c3.626-1.324,7.485-1.888,11.285-1.758c7.63,0.263,14.955,3.545,20.226,9.016c5.474,5.269,8.757,12.595,9.02,20.226
					C-304.457,38.993-305.021,42.852-306.345,46.478z"/>
			</g>
			
				<linearGradient id="SVGID_00000151535554171902503780000001158490022342834349_" gradientUnits="userSpaceOnUse" x1="261.7552" y1="131.0489" x2="898.0022" y2="131.0489">
				<stop  offset="0" style="stop-color:#E535AB"/>
				<stop  offset="1" style="stop-color:#9C37B5"/>
			</linearGradient>
			<path style="fill:url(#SVGID_00000151535554171902503780000001158490022342834349_);" d="M898.002,91.104
				c0,0-92.192-9.231-110.827,5.1c-18.634,14.331,26.249,24.014-27.301,35.397c-53.55,11.384-140.568,30.305-97.128-6.702
				c23.907-20.367,36.313-42.48-12.613-27.089c-48.926,15.391-142.926,44.058-129.593,22.724
				c13.333-21.333,41.024-40.072-9.821-27.703s-101.263,32.213-138.054,31.291c-36.791-0.922-88.737-35.6-107.098-12.928
				c-18.36,22.672,32.973,55.121,81.64,44.897c48.667-10.224,129.522-38.814,144.095-39.186
				c14.572-0.372-39.815,35.78-19.955,41.704c19.86,5.924,150.321-41.999,161.424-41.704c11.103,0.295-63.31,55.638-32.012,56.961
				c31.298,1.324,193.214-23.017,207.115-36.358c7.312-7.017-21.226-24.806-5.28-32.224
				C818.541,97.868,898.002,91.104,898.002,91.104z"/>
			<path style="fill:none;stroke:#FFFFFF;stroke-miterlimit:10;" d="M-43.68,302.654c0,0,3.918,64.345,115.832,59.807
				c111.914-4.538,437.7-133.848,488.774-114.988c51.074,18.86-37.593,59.146,78.407,56.669c116-2.476,250-56.669,250-56.669"/>
		</g>
		
			<linearGradient id="SVGID_00000129164385572692493400000009433775678517326012_" gradientUnits="userSpaceOnUse" x1="297.6782" y1="37.9957" x2="323.6785" y2="37.9957" gradientTransform="matrix(-0.7071 0.7071 -0.7071 -0.7071 410.8807 -91.4806)">
			<stop  offset="0" style="stop-color:#E535AB"/>
			<stop  offset="1" style="stop-color:#9C37B5"/>
		</linearGradient>
		
			<path style="clip-path:url(#SVGID_00000087373658545602177100000004204917853945594534_);fill:url(#SVGID_00000129164385572692493400000009433775678517326012_);" d="
			M155.141,110.526c-5.077-5.077-5.077-13.308,0-18.385c5.077-5.077,13.308-5.077,18.385,0c5.077,5.077,5.077,13.308,0,18.385
			C168.449,115.603,160.218,115.603,155.141,110.526z"/>
		
			<linearGradient id="SVGID_00000170254230350634480940000009468546120680167810_" gradientUnits="userSpaceOnUse" x1="228.0588" y1="-241.8721" x2="254.0591" y2="-241.8721" gradientTransform="matrix(-0.7071 0.7071 -0.7071 -0.7071 410.8807 -91.4806)">
			<stop  offset="0" style="stop-color:#E535AB"/>
			<stop  offset="1" style="stop-color:#9C37B5"/>
		</linearGradient>
		
			<circle style="clip-path:url(#SVGID_00000087373658545602177100000004204917853945594534_);fill:url(#SVGID_00000170254230350634480940000009468546120680167810_);" cx="411.456" cy="250" r="13"/>
		
			<linearGradient id="SVGID_00000173847801822443109520000011659218385014132105_" gradientUnits="userSpaceOnUse" x1="189.4033" y1="-568.0872" x2="215.4036" y2="-568.0872" gradientTransform="matrix(-0.7071 0.7071 -0.7071 -0.7071 410.8807 -91.4806)">
			<stop  offset="0" style="stop-color:#E535AB"/>
			<stop  offset="1" style="stop-color:#9C37B5"/>
		</linearGradient>
		
			<path style="clip-path:url(#SVGID_00000087373658545602177100000004204917853945594534_);fill:url(#SVGID_00000173847801822443109520000011659218385014132105_);" d="
			M660.263,462.526c-5.077-5.077-5.077-13.308,0-18.385c5.077-5.077,13.308-5.077,18.385,0c5.077,5.077,5.077,13.308,0,18.385
			C673.571,467.603,665.34,467.603,660.263,462.526z"/>
		
			<linearGradient id="SVGID_00000038381758419568530990000009213495821382704312_" gradientUnits="userSpaceOnUse" x1="53.4789" y1="-420.7757" x2="70.832" y2="-420.7757" gradientTransform="matrix(-0.7071 0.7071 -0.7071 -0.7071 410.8807 -91.4806)">
			<stop  offset="0" style="stop-color:#E535AB"/>
			<stop  offset="1" style="stop-color:#9C37B5"/>
		</linearGradient>
		
			<path style="clip-path:url(#SVGID_00000087373658545602177100000004204917853945594534_);fill:url(#SVGID_00000038381758419568530990000009213495821382704312_);" d="
			M658.326,256.135c-3.388-3.388-3.388-8.882,0-12.27c3.388-3.388,8.882-3.388,12.27,0c3.388,3.388,3.388,8.882,0,12.27
			C667.208,259.524,661.714,259.524,658.326,256.135z"/>
		
			<linearGradient id="SVGID_00000059269234751193101900000005053697733776538000_" gradientUnits="userSpaceOnUse" x1="-179.4334" y1="-312.2066" x2="-115.4311" y2="-312.2066" gradientTransform="matrix(-0.7071 0.7071 -0.7071 -0.7071 410.8807 -91.4806)">
			<stop  offset="0" style="stop-color:#E535AB"/>
			<stop  offset="1" style="stop-color:#9C37B5"/>
		</linearGradient>
		
			<circle style="clip-path:url(#SVGID_00000087373658545602177100000004204917853945594534_);fill:url(#SVGID_00000059269234751193101900000005053697733776538000_);" cx="735.891" cy="25.031" r="32.001"/>
		
			<linearGradient id="SVGID_00000160904415557017047350000018271336002802085028_" gradientUnits="userSpaceOnUse" x1="567.9856" y1="-146.0349" x2="631.9879" y2="-146.0349" gradientTransform="matrix(-0.7071 0.7071 -0.7071 -0.7071 410.8807 -91.4806)">
			<stop  offset="0" style="stop-color:#E535AB"/>
			<stop  offset="1" style="stop-color:#9C37B5"/>
		</linearGradient>
		
			<circle style="clip-path:url(#SVGID_00000087373658545602177100000004204917853945594534_);fill:url(#SVGID_00000160904415557017047350000018271336002802085028_);" cx="89.891" cy="436.031" r="32.001"/>
		
			<linearGradient id="SVGID_00000084514931920632259930000002288819375640731267_" gradientUnits="userSpaceOnUse" x1="455.5908" y1="-268.5106" x2="472.9439" y2="-268.5106" gradientTransform="matrix(-0.7071 0.7071 -0.7071 -0.7071 410.8807 -91.4806)">
			<stop  offset="0" style="stop-color:#E535AB"/>
			<stop  offset="1" style="stop-color:#9C37B5"/>
		</linearGradient>
		
			<path style="clip-path:url(#SVGID_00000087373658545602177100000004204917853945594534_);fill:url(#SVGID_00000084514931920632259930000002288819375640731267_);" d="
			M266.326,432.802c-3.388-3.388-3.388-8.882,0-12.27c3.388-3.388,8.882-3.388,12.27,0c3.388,3.388,3.388,8.882,0,12.27
			C275.208,436.19,269.714,436.19,266.326,432.802z"/>
		
			<linearGradient id="SVGID_00000073686795445070268290000005480339041570660503_" gradientUnits="userSpaceOnUse" x1="274.8164" y1="12.4971" x2="292.1696" y2="12.4971" gradientTransform="matrix(-0.7071 0.7071 -0.7071 -0.7071 410.8807 -91.4806)">
			<stop  offset="0" style="stop-color:#E535AB"/>
			<stop  offset="1" style="stop-color:#9C37B5"/>
		</linearGradient>
		
			<path style="clip-path:url(#SVGID_00000087373658545602177100000004204917853945594534_);fill:url(#SVGID_00000073686795445070268290000005480339041570660503_);" d="
			M195.451,106.276c-3.388-3.388-3.388-8.882,0-12.27c3.388-3.388,8.882-3.388,12.27,0c3.388,3.388,3.388,8.882,0,12.27
			C204.333,109.664,198.839,109.664,195.451,106.276z"/>
	</g>
</g>
<g id="OBJECTS">
</g>
</svg>
